<svg id="Layer_1" enable-background="new 0 0 500 500" viewBox="0 0 500 500" xmlns="http://www.w3.org/2000/svg" xmlns:xlink="http://www.w3.org/1999/xlink"><linearGradient id="SVGID_1_" gradientUnits="userSpaceOnUse" x1="276.987" x2="240.253" y1="140.718" y2="335.493"><stop offset="0" stop-color="#fff3d0"/><stop offset="1" stop-color="#ffe599"/></linearGradient><linearGradient id="lg1"><stop offset=".3" stop-color="#ff4000"/><stop offset="1" stop-color="#ff6f00"/></linearGradient><linearGradient id="SVGID_2_" gradientUnits="userSpaceOnUse" x1="81.608" x2="81.608" xlink:href="#lg1" y1="154.584" y2="346.085"/><linearGradient id="SVGID_3_" gradientUnits="userSpaceOnUse" x1="188.802" x2="188.802" xlink:href="#lg1" y1="154.584" y2="346.085"/><linearGradient id="SVGID_4_" gradientUnits="userSpaceOnUse" x1="306.751" x2="306.751" xlink:href="#lg1" y1="154.584" y2="346.085"/><linearGradient id="SVGID_5_" gradientUnits="userSpaceOnUse" x1="413.944" x2="413.944" xlink:href="#lg1" y1="154.584" y2="346.085"/><linearGradient id="lg2"><stop offset="0" stop-color="#bf0000"/><stop offset="1" stop-color="#ff6f00"/></linearGradient><linearGradient id="SVGID_6_" gradientUnits="userSpaceOnUse" x1="58.794" x2="58.794" xlink:href="#lg2" y1="269.331" y2="339.156"/><linearGradient id="SVGID_7_" gradientUnits="userSpaceOnUse" x1="186.337" x2="186.337" xlink:href="#lg2" y1="269.331" y2="339.156"/><linearGradient id="SVGID_8_" gradientUnits="userSpaceOnUse" x1="313.772" x2="313.772" xlink:href="#lg2" y1="269.331" y2="339.156"/><linearGradient id="SVGID_9_" gradientUnits="userSpaceOnUse" x1="440.988" x2="440.988" xlink:href="#lg2" y1="269.331" y2="339.156"/><linearGradient id="lg3"><stop offset="0" stop-color="#fff3d0"/><stop offset="1" stop-color="#ffda6e"/></linearGradient><linearGradient id="SVGID_10_" gradientUnits="userSpaceOnUse" x1="122.456" x2="122.456" xlink:href="#lg3" y1="350" y2="292.44"/><linearGradient id="SVGID_11_" gradientUnits="userSpaceOnUse" x1="250" x2="250" xlink:href="#lg3" y1="350" y2="292.44"/><linearGradient id="SVGID_12_" gradientUnits="userSpaceOnUse" x1="377.325" x2="377.325" xlink:href="#lg3" y1="350" y2="292.44"/><g><path d="m475 283.81h-450l66.704-108.955h307.696z" fill="url(#SVGID_1_)"/><path d="m93.023 283.81h-68.023l66.704-108.955h46.513z" fill="url(#SVGID_2_)"/><path d="m220.348 283.81h-68.023l26.44-108.955h46.512z" fill="url(#SVGID_3_)"/><path d="m347.675 283.81h-68.024l-13.824-108.955h46.512z" fill="url(#SVGID_4_)"/><path d="m475 283.81h-68.024l-54.088-108.955h46.512z" fill="url(#SVGID_5_)"/><path d="m58.794 325.145c-18.664 0-33.794-15.13-33.794-33.794v-7.541h67.587v7.541c0 18.664-15.13 33.794-33.793 33.794z" fill="url(#SVGID_6_)"/><path d="m186.446 325.145h-.219c-18.724 0-33.902-15.179-33.902-33.902v-7.433h68.023v7.433c0 18.723-15.178 33.902-33.902 33.902z" fill="url(#SVGID_7_)"/><path d="m313.935 325.145h-.327c-18.754 0-33.957-15.203-33.957-33.957v-7.378h68.242v7.378c-.001 18.754-15.204 33.957-33.958 33.957z" fill="url(#SVGID_8_)"/><path d="m441.097 325.145h-.218c-18.724 0-33.903-15.179-33.903-33.902v-7.433h68.024v7.433c0 18.723-15.179 33.902-33.903 33.902z" fill="url(#SVGID_9_)"/><path d="m122.456 325.145c-16.496 0-29.869-13.373-29.869-29.87v-11.465h59.738v11.465c0 16.497-13.373 29.87-29.869 29.87z" fill="url(#SVGID_10_)"/><path d="m250 325.145c-16.376 0-29.652-13.276-29.652-29.651v-11.684h59.303v11.684c0 16.376-13.276 29.651-29.651 29.651z" fill="url(#SVGID_11_)"/><path d="m377.325 325.145c-16.376 0-29.651-13.276-29.651-29.651v-11.684h59.302v11.684c0 16.376-13.274 29.651-29.651 29.651z" fill="url(#SVGID_12_)"/></g></svg>