<svg id="Layer_1" enable-background="new 0 0 512 512" height="512" viewBox="0 0 512 512" width="512" xmlns="http://www.w3.org/2000/svg"><g><g fill="#6b717d"><g><path d="m119.941 442.532h-30c-4.143 0-7.5 3.357-7.5 7.5v54.468c0 4.143 3.357 7.5 7.5 7.5h30c4.143 0 7.5-3.357 7.5-7.5v-54.468c0-4.142-3.358-7.5-7.5-7.5z"/><path d="m359.941 442.532h-30c-4.143 0-7.5 3.357-7.5 7.5v54.468c0 4.143 3.357 7.5 7.5 7.5h30c4.143 0 7.5-3.357 7.5-7.5v-54.468c0-4.142-3.358-7.5-7.5-7.5z"/></g><path d="m428.591 193.77v28.467c0 9.201-7.486 16.688-16.688 16.688h-8.829v15h8.829c17.473 0 31.688-14.215 31.688-31.688v-28.467z"/><path d="m472.69 59.38v68.43l-26 20.23-12.56 9.77-38.56-30v-68.43c0-4.14 3.36-7.5 7.5-7.5h62.12c4.15 0 7.5 3.36 7.5 7.5z"/></g><path d="m472.69 59.38v68.43l-26 20.23v-88.66c0-4.14-3.35-7.5-7.5-7.5h26c4.15 0 7.5 3.36 7.5 7.5z" fill="#47505e"/><path d="m472.69 127.81v65.96c0 4.14-3.35 7.5-7.5 7.5h-62.12c-4.14 0-7.5-3.36-7.5-7.5v-65.96z" fill="#ffa07a"/><path d="m472.69 127.81v65.96c0 4.14-3.35 7.5-7.5 7.5h-26c4.15 0 7.5-3.36 7.5-7.5v-65.96z" fill="#ff7d43"/><path d="m410.57 29.38v420.65c0 4.14-3.35 7.5-7.5 7.5h-356.26c-4.15 0-7.5-3.36-7.5-7.5v-420.65c0-16.2 13.17-29.38 29.37-29.38h38.76l117.5 30 117.5-30h38.76c16.2 0 29.37 13.18 29.37 29.38z" fill="#d6eaec"/><path d="m410.57 29.38v420.65c0 4.14-3.35 7.5-7.5 7.5h-30c4.15 0 7.5-3.36 7.5-7.5v-420.65c0-16.2-13.17-29.38-29.37-29.38h30c16.2 0 29.37 13.18 29.37 29.38z" fill="#b5d9dd"/><path d="m356.377 219.833c-40.031-21.957-85.481-33.563-131.437-33.563s-91.406 11.606-131.437 33.563c-2.401 1.317-3.894 3.838-3.894 6.576v35c0 4.143 3.357 7.5 7.5 7.5h255.66c4.143 0 7.5-3.357 7.5-7.5v-35c.002-2.738-1.49-5.259-3.892-6.576z" fill="#b5d9dd"/><path d="m360.271 261.409c-40.965-23.367-87.878-35.742-135.33-35.742-47.453 0-94.366 12.375-135.33 35.742v153.88c0 4.142 3.358 7.5 7.5 7.5h255.66c4.142 0 7.5-3.358 7.5-7.5z" fill="#6b717d"/><path d="m280.137 318.648c-.173-3.092-3.516-4.918-6.205-3.383-2.749 1.569-6.037 3.675-8.985 6.18-12.182-24.385-30.532-41.281-37.341-47.03-1.543-1.303-3.789-1.303-5.332 0-6.809 5.75-25.159 22.645-37.341 47.03-2.948-2.505-6.237-4.611-8.985-6.18-2.689-1.535-6.032.291-6.205 3.383-1.333 23.839-10.994 32.653-10.994 52.617 0 28.456 20.022 51.524 66.191 51.524s66.191-23.068 66.191-51.524c0-19.964-9.661-28.778-10.994-52.617z" fill="#ff6c6c"/><path d="m224.94 422.789c15.383 0 27.853-12.47 27.853-27.853 0-23.26-27.853-39.718-27.853-39.718s-27.853 16.458-27.853 39.718c0 15.383 12.47 27.853 27.853 27.853z" fill="#f3d6ae"/><path d="m342.44 0v59.38c0 4.14-3.36 7.5-7.5 7.5h-220c-4.14 0-7.5-3.36-7.5-7.5v-59.38z" fill="#6b717d"/><g><path d="m207.553 102.75h-110.443c-4.143 0-7.5 3.357-7.5 7.5v30c0 4.143 3.357 7.5 7.5 7.5h110.443c4.143 0 7.5-3.357 7.5-7.5v-30c0-4.143-3.357-7.5-7.5-7.5z" fill="#72bbff"/><g fill="#b5d9dd"><path d="m337.77 107.555c-9.764 0-17.706 7.938-17.706 17.696s7.943 17.695 17.706 17.695 17.706-7.938 17.706-17.695-7.942-17.696-17.706-17.696z"/><g><path d="m248.007 117.744c-4.134 0-7.485 3.358-7.485 7.5s3.351 7.5 7.485 7.5 7.485-3.358 7.485-7.5-3.351-7.5-7.485-7.5z"/><path d="m282.828 117.744c-4.134 0-7.485 3.358-7.485 7.5s3.351 7.5 7.485 7.5 7.485-3.358 7.485-7.5-3.351-7.5-7.485-7.5z"/></g></g></g></g></svg>