<svg xmlns="http://www.w3.org/2000/svg" version="1.1" xmlns:xlink="http://www.w3.org/1999/xlink" width="512" height="512" x="0" y="0" viewBox="0 0 512 512" style="enable-background:new 0 0 512 512" xml:space="preserve" class=""><g><path d="M466.99 68.445c-29.023-29.023-67.606-45.007-108.642-45.007-37.938 0-73.78 13.662-101.909 38.658C196.198 7.806 103 9.661 45.007 67.654 15.984 96.677 0 135.26 0 176.296s15.984 79.62 45.007 108.643l.545.545c-14.015 33.477-9.881 65.951-7.403 80.832l-14.952 16.886c-7.283 8.225-6.516 20.842 1.709 28.126l82.387 72.951a19.833 19.833 0 0 0 13.197 4.998c5.51 0 10.997-2.267 14.928-6.706l19.29-21.786c19.322.508 38.079-3.326 55.125-11.009l28.115 28.115c5.085 5.077 11.764 7.615 18.444 7.615 6.682 0 13.365-2.54 18.455-7.621l78.863-78.864c3.913-3.912 3.913-10.257 0-14.17-3.914-3.913-10.256-3.912-14.17 0l-78.857 78.857c-2.363 2.361-6.212 2.361-8.57.006l-24.066-24.066a126.23 126.23 0 0 0 24.141-21.134l110.463-124.752c5.827-6.58 8.724-15.051 8.157-23.852-.564-8.773-4.506-16.821-11.102-22.66a32.98 32.98 0 0 0-12.312-6.885c7.36-13.27 4.743-30.443-7.178-41a33.475 33.475 0 0 0-11.878-6.803c10.325-13.631 8.38-33.364-4.869-45.096-6.69-5.925-15.257-8.958-24.094-8.535-8.073.384-15.504 3.599-21.202 9.103a32.948 32.948 0 0 0-8.021-10.708c-6.605-5.849-15.092-8.777-23.902-8.241-8.807.535-16.879 4.468-22.728 11.073l-53.819 60.781c-2.689-7.503-7.872-13.751-14.862-17.824-15.005-8.743-34.106-4.808-44.435 9.15 0 0-54.77 74.157-55.02 74.545-22.832-24.737-35.349-56.664-35.349-90.516 0-35.684 13.899-69.234 39.137-94.473 25.235-25.235 58.786-39.132 94.473-39.132s69.238 13.897 94.473 39.132l1.192 1.192a10.02 10.02 0 0 0 7.085 2.934h.062a10.023 10.023 0 0 0 7.11-3.022l.349-.358c25.234-25.209 58.766-39.092 94.428-39.092 35.683 0 69.234 13.899 94.473 39.138 25.24 25.235 39.14 58.785 39.14 94.472s-13.9 69.237-39.14 94.472a9.01 9.01 0 0 0-.097.098l-49.664 49.674c-3.913 3.912-3.913 10.257 0 14.17a9.99 9.99 0 0 0 7.085 2.934 9.99 9.99 0 0 0 7.085-2.934l49.37-49.37.096-.097.341-.351C496.032 256.669 512 218.105 512 177.088c0-41.04-15.985-79.624-45.01-108.643zM126.516 204.187a13.935 13.935 0 0 1 18.238-3.756c3.295 1.92 5.612 5.017 6.523 8.721s.296 7.522-1.732 10.752l-.064.103-7.906 12.936a10.02 10.02 0 0 0 16.051 11.868l80.901-91.366a12.91 12.91 0 0 1 8.94-4.356 12.926 12.926 0 0 1 9.402 3.242 12.913 12.913 0 0 1 4.356 8.94 12.909 12.909 0 0 1-3.243 9.402l-70.919 80.094c-3.668 4.143-3.284 10.475.859 14.144 4.143 3.668 10.475 3.283 14.144-.859l89.319-100.873c2.267-2.561 5.443-4.064 8.943-4.23 3.583-.17 7.099 1.079 9.857 3.522 5.617 4.974 6.324 13.384 1.574 18.748l-89.32 100.873c-3.668 4.143-3.284 10.475.859 14.144 4.144 3.668 10.476 3.283 14.144-.859l70.924-80.098c2.283-2.578 5.457-4.101 8.938-4.29 3.524-.192 6.95 1.009 9.627 3.38 5.49 4.861 6.092 13.179 1.342 18.543l-70.92 80.094c-3.669 4.143-3.284 10.475.859 14.144a9.981 9.981 0 0 0 6.638 2.518 9.995 9.995 0 0 0 7.505-3.377l55.837-63.059c4.693-5.287 12.865-5.727 18.23-.978a12.984 12.984 0 0 1 4.387 8.944c.221 3.432-.902 6.728-3.162 9.28L237.185 405.23c-21.776 24.593-53.174 37.472-86.155 35.33a10.012 10.012 0 0 0-8.151 3.356L120.491 469.2l-82.215-72.799 18.063-20.4a10.02 10.02 0 0 0 2.376-8.323l-.259-1.496c-2.305-13.231-9.309-53.441 14.244-89.268z" fill="#af3800" opacity="1" data-original="#000000"></path><circle cx="378.286" cy="359.93" r="10" fill="#af3800" opacity="1" data-original="#000000"></circle></g></svg>