<svg id="Capa_1" enable-background="new 0 0 512 512" height="512" viewBox="0 0 512 512" width="512" xmlns="http://www.w3.org/2000/svg"><g><path d="m488.968 251.001-32.968-10.991-28.879-32 2.212-32-13.333-32-12-12.108h-387.338v152.591l13.053 25.759-13.053 25.758v43.023h487.338v-43.023l-11.905-25.759 11.905-25.758v-12.636c0-9.463-6.055-17.864-15.032-20.856z" fill="#fffff1"/><path d="m456 240.01h-73.093l-30.906-32 30.906-32h46.426z" fill="#d5eafc"/><path d="m42.805 131.902h-32.499v152.591l13.052 25.759-13.052 25.758v43.023h32.499v-50.023l-13.09-18.758 13.09-18.759z" fill="#f4ecd9"/><path d="m504 336.01h-25.499c-3.866 0-7-3.134-7-7v-37.517c0-3.866 3.134-7 7-7h25.499z" fill="#fddf7d"/><path d="m35.805 336.01h-25.499v-51.517h25.499c3.866 0 7 3.134 7 7v37.517c0 3.866-3.134 7-7 7z" fill="#fddf7d"/><path d="m192 379.033h96v-196.023c0-3.866-3.134-7-7-7h-82c-3.866 0-7 3.134-7 7z" fill="#f4ecd9"/><path d="m153 240.01h-102.628c-3.866 0-7-3.134-7-7v-50c0-3.866 3.134-7 7-7h102.628c3.866 0 7 3.134 7 7v50c0 3.866-3.134 7-7 7z" fill="#d5eafc"/><path d="m144 125.243h-112l15.453-25.827 15.453-19.406h74.094c3.866 0 7 3.134 7 7z" fill="#755e68"/><path d="m32 87.01v38.232h30.906v-45.232h-23.906c-3.866 0-7 3.134-7 7z" fill="#69545f"/><path d="m320 131.902v247.131h32.001v-139.023l15.453-32-15.453-32v-44.108z" fill="#f4ecd9"/><path d="m433.041 144.01h-402.135l-16.814-14.59 16.814-17.409h225.094l62.906-32h83.864c17.914 0 34.291 10.121 42.302 26.144l5.083 10.166c6.361 12.721-2.89 27.689-17.114 27.689z" fill="#c7e973"/><path d="m504.789 400.01h-497.578c-3.983 0-7.211-3.229-7.211-7.211v-17.577c0-3.983 3.229-7.211 7.211-7.211h497.577c3.983 0 7.211 3.229 7.211 7.211v17.577c.001 3.983-3.228 7.211-7.21 7.211z" fill="#755e68"/><g><circle cx="112" cy="383.99" fill="#5d4b54" r="48"/><circle cx="112" cy="383.99" fill="#fffff1" r="16"/></g><g><circle cx="400" cy="383.99" fill="#5d4b54" r="48"/><circle cx="400" cy="383.99" fill="#fffff1" r="16"/></g><g fill="#b3dd2d"><path d="m318.906 80.01h-28.006c-1.857 0-3.637.737-4.95 2.05l-29.95 29.95h30.906z"/><path d="m0 119.01v18c0 3.866 3.134 7 7 7h23.906v-32h-23.906c-3.866 0-7 3.134-7 7z"/></g><path d="m376.136 264.284h-24.135c-4.267 0-7.726 3.459-7.726 7.726s3.459 7.726 7.726 7.726h24.135c4.267 0 7.726-3.459 7.726-7.726.001-4.267-3.459-7.726-7.726-7.726z" fill="#f4ecd9"/><path d="m359.001 240.01h23.906v-64h-23.906c-3.866 0-7 3.134-7 7v50c0 3.866 3.134 7 7 7z" fill="#b2d8f6"/></g></svg>